HIERARCHY
ROOT Pelvis
{
	OFFSET 0.000000 0.000000 0.000000
	CHANNELS 6 Xposition Yposition Zposition Xrotation Yrotation Zrotation
	JOINT LeftUpLeg_virtual
	{
		OFFSET 0.000000 0.000000 0.000000
		CHANNELS 3 Xrotation Yrotation Zrotation
		JOINT LeftUpLeg
		{
			OFFSET 18.735201 -5.666702 -4.541200
			CHANNELS 3 Xrotation Yrotation Zrotation
			JOINT LeftLeg
			{
				OFFSET -0.021200 -31.938179 0.493100
				CHANNELS 3 Xrotation Yrotation Zrotation
				JOINT LeftFoot
				{
					OFFSET 0.021200 -31.938179 -4.336299
					CHANNELS 3 Xrotation Yrotation Zrotation
					JOINT LeftToeBase
					{
						OFFSET 0.943001 -26.722000 15.023500
						CHANNELS 3 Xrotation Yrotation Zrotation
						End Site
						{
							OFFSET 0 0 0
						}
					}
				}
			}
		}
	}
	JOINT RightUpLeg_virtual
	{
		OFFSET 0.000000 0.000000 0.000000
		CHANNELS 3 Xrotation Yrotation Zrotation
		JOINT RightUpLeg
		{
			OFFSET -18.735201 -5.666702 -4.541200
			CHANNELS 3 Xrotation Yrotation Zrotation
			JOINT RightLeg
			{
				OFFSET 0.018946 -31.938133 0.493100
				CHANNELS 3 Xrotation Yrotation Zrotation
				JOINT RightFoot
				{
					OFFSET -0.018946 -31.938126 -4.336299
					CHANNELS 3 Xrotation Yrotation Zrotation
					JOINT RightToeBase
					{
						OFFSET -0.943001 -26.722004 15.023500
						CHANNELS 3 Xrotation Yrotation Zrotation
						End Site
						{
							OFFSET 0 0 0
						}
					}
				}
			}
		}
	}
	JOINT Hips_virtual
	{
		OFFSET 0.000000 0.000000 0.000000
		CHANNELS 3 Xrotation Yrotation Zrotation
		JOINT Hips
		{
			OFFSET -0.000000 -0.000000 -0.000000
			CHANNELS 3 Xrotation Yrotation Zrotation
			JOINT Spine
			{
				OFFSET 0.000000 10.199997 -0.299500
				CHANNELS 3 Xrotation Yrotation Zrotation
				JOINT Spine1
				{
					OFFSET 0.000000 11.900002 -1.516600
					CHANNELS 3 Xrotation Yrotation Zrotation
					JOINT Spine2
					{
						OFFSET 0.000000 13.600006 -2.842500
						CHANNELS 3 Xrotation Yrotation Zrotation
						JOINT Neck_virtual
						{
							OFFSET 0.000000 0.000000 0.000000
							CHANNELS 3 Xrotation Yrotation Zrotation
							JOINT Neck
							{
								OFFSET 0.000000 9.624100 -2.890100
								CHANNELS 3 Xrotation Yrotation Zrotation
								JOINT Head
								{
									OFFSET 0.000000 14.068802 -1.351900
									CHANNELS 3 Xrotation Yrotation Zrotation
									End Site
									{
										OFFSET 0 0 0
									}
								}
							}
						}
						JOINT LeftShoulder_virtual
						{
							OFFSET 0.000000 0.000000 0.000000
							CHANNELS 3 Xrotation Yrotation Zrotation
							JOINT LeftShoulder
							{
								OFFSET 15.263000 10.923401 -0.547700
								CHANNELS 3 Xrotation Yrotation Zrotation
								JOINT LeftArm
								{
									OFFSET 25.438599 -2.830597 -13.032500
									CHANNELS 3 Xrotation Yrotation Zrotation
									JOINT LeftForeArm
									{
										OFFSET 29.960503 0.000000 0.000000
										CHANNELS 3 Xrotation Yrotation Zrotation
										JOINT LeftHand
										{
											OFFSET 27.849251 0.000000 0.000000
											CHANNELS 3 Xrotation Yrotation Zrotation
											End Site
											{
												OFFSET 0 0 0
											}
										}
									}
								}
							}
						}
						JOINT RightShoulder_virtual
						{
							OFFSET 0.000000 0.000000 0.000000
							CHANNELS 3 Xrotation Yrotation Zrotation
							JOINT RightShoulder
							{
								OFFSET -15.263000 10.923401 -0.547700
								CHANNELS 3 Xrotation Yrotation Zrotation
								JOINT RightArm
								{
									OFFSET -25.438599 -2.830597 -13.032500
									CHANNELS 3 Xrotation Yrotation Zrotation
									JOINT RightForeArm
									{
										OFFSET -29.960503 0.000000 0.000000
										CHANNELS 3 Xrotation Yrotation Zrotation
										JOINT RightHand
										{
											OFFSET -27.849251 0.000000 0.000000
											CHANNELS 3 Xrotation Yrotation Zrotation
											End Site
											{
												OFFSET 0 0 0
											}
										}
									}
								}
							}
						}
					}
				}
			}
		}
	}
}
MOTION
Frames: 10
Frame Time: 0.03333333
-147.896744 36.999493 13.176029 0.000000 0.000000 0.000000 -4.690921 1.437370 -60.002536 -110.238748 -21.701577 4.119604 12.132041 -11.113133 -18.360747 10.864890 51.821984 19.111419 0.000000 0.000000 0.000000 -6.327938 4.767371 -60.690192 -69.087329 -30.786985 -6.963856 116.039819 16.879156 1.347977 -22.497993 44.899498 -4.165739 0.000000 0.000000 0.000000 -6.124336 6.782900 -60.690923 -0.754771 0.028103 0.005148 21.406691 0.619047 -10.491838 10.986012 5.430373 -0.101838 0.000000 0.000000 0.000000 10.630982 4.818041 0.343325 5.002356 1.755867 -0.817645 0.000000 0.000000 0.000000 7.974937 4.155340 1.099211 -1.971656 -24.479779 -24.011163 -34.824754 12.199345 -13.465713 20.960064 -69.566153 25.052150 0.000000 0.000000 0.000000 15.620626 7.618917 -1.587312 -2.937274 20.374176 1.250978 -33.649887 -46.119992 11.749454 38.038860 45.460602 -54.214350 0.000000 0.000000 0.000000 
-147.002823 38.704330 9.316761 0.000000 0.000000 0.000000 -4.513189 3.229683 -64.032081 -114.593854 -23.539687 3.366397 23.921218 -13.460385 -16.042028 0.907987 56.520502 16.646081 0.000000 0.000000 0.000000 -6.287731 5.955682 -64.559412 -74.418538 -31.512437 -8.259630 114.943491 17.100524 2.092343 -22.201817 45.634772 2.826395 0.000000 0.000000 0.000000 -5.214268 7.884072 -64.298834 -0.695056 0.065730 -0.050461 21.638193 -0.806002 -9.627263 10.649973 5.900239 -0.584148 0.000000 0.000000 0.000000 10.025817 4.945585 -0.056209 4.808954 1.501385 -0.372163 0.000000 0.000000 0.000000 7.721834 4.404198 1.200700 -0.931667 -23.792389 -22.866054 -37.691801 8.206468 -13.232844 15.202191 -67.639083 20.157871 0.000000 0.000000 0.000000 15.092392 7.614344 -1.913844 -3.160781 19.446341 2.258779 -33.640386 -48.842444 4.848478 36.541823 48.367199 -50.728795 0.000000 0.000000 0.000000 
-145.930511 41.280857 5.979507 0.000000 0.000000 0.000000 -3.619253 4.239069 -67.673671 -121.773571 -25.132680 5.776429 47.703609 -17.569939 -12.530674 -14.898338 58.935162 14.801218 0.000000 0.000000 0.000000 -5.231979 6.016966 -68.274216 -77.861465 -31.536356 -7.439316 112.343887 16.188045 3.616896 -14.779983 45.093489 1.692609 0.000000 0.000000 0.000000 -3.329035 7.084178 -67.364394 -0.606823 0.097773 -0.100023 22.760770 -2.414837 -8.882040 10.289630 6.334705 -0.982913 0.000000 0.000000 0.000000 9.268083 4.878522 -0.335805 4.494035 1.248151 0.074430 0.000000 0.000000 0.000000 7.064552 4.454345 1.509401 -0.043382 -22.657969 -21.488270 -41.341301 3.671080 -12.950267 9.239293 -64.485223 14.978456 0.000000 0.000000 0.000000 14.360073 7.418434 -2.169427 -3.998949 17.632313 4.683052 -34.739244 -52.965829 -2.675048 36.293105 52.642396 -48.405189 0.000000 0.000000 0.000000 
-144.274384 45.013256 3.309299 0.000000 0.000000 0.000000 -2.650793 3.616544 -70.602696 -127.967132 -26.217208 10.574994 76.158761 -21.521880 -7.386234 -35.795054 58.638506 13.150718 0.000000 0.000000 0.000000 -3.845066 4.208099 -71.619629 -77.161398 -30.630352 -4.020153 106.082953 14.073025 5.970811 -2.132605 42.325306 -6.394820 0.000000 0.000000 0.000000 -1.526956 4.229104 -69.686084 -0.542459 0.078764 -0.115405 24.558823 -3.960807 -8.598726 9.931408 6.689451 -1.341098 0.000000 0.000000 0.000000 8.352649 4.613243 -0.492569 4.090730 1.028972 0.421673 0.000000 0.000000 0.000000 6.091820 4.300756 1.893337 0.662855 -21.204374 -19.998922 -44.513688 -0.507464 -12.283242 4.449162 -61.831326 10.618720 0.000000 0.000000 0.000000 13.592812 7.077318 -2.388098 -5.164715 15.152467 7.630942 -37.111211 -58.283186 -10.132889 37.585394 57.724538 -47.770237 0.000000 0.000000 0.000000 
-142.028687 49.630657 1.564655 0.000000 0.000000 0.000000 -2.247566 0.376224 -72.934003 -129.467670 -26.601295 17.339827 98.858027 -24.427666 -1.944382 -55.190811 56.864361 10.020203 0.000000 0.000000 0.000000 -2.900834 0.385749 -74.192875 -72.803997 -27.821964 1.254187 94.606180 11.748001 8.163784 14.110322 38.184777 -14.908141 0.000000 0.000000 0.000000 -0.286014 0.095612 -71.426382 -0.548551 0.049066 -0.097487 26.617257 -5.367372 -8.881895 9.480367 6.784345 -1.699614 0.000000 0.000000 0.000000 7.326525 4.141491 -0.596847 3.643350 0.836536 0.598045 0.000000 0.000000 0.000000 4.990259 3.916696 2.125279 1.126560 -19.901862 -18.667725 -47.128708 -4.235569 -10.825435 0.493373 -59.714568 6.686282 0.000000 0.000000 0.000000 12.964363 6.528568 -2.584959 -6.261129 12.461307 9.964274 -39.380883 -64.202788 -15.580691 39.914198 62.418633 -48.668298 0.000000 0.000000 0.000000 
-139.323395 54.164631 0.443592 0.000000 0.000000 0.000000 -2.096530 -4.792237 -75.097773 -125.015425 -25.120357 25.799996 113.395627 -26.750817 2.935486 -67.177212 56.248042 6.817716 0.000000 0.000000 0.000000 -2.395022 -4.897749 -76.163713 -67.972479 -23.217888 5.919499 78.420373 10.541835 9.951633 33.395387 34.942660 -19.423169 0.000000 0.000000 0.000000 0.191757 -4.436842 -73.014982 -0.596753 0.009681 -0.030445 28.746115 -6.531540 -9.474100 8.923508 6.544203 -2.102249 0.000000 0.000000 0.000000 6.261459 3.437443 -0.724404 3.177335 0.715265 0.586233 0.000000 0.000000 0.000000 3.927983 3.241220 2.054416 1.313214 -19.214760 -17.686730 -49.538648 -7.994339 -8.457562 -2.928217 -57.092028 2.913401 0.000000 0.000000 0.000000 12.310417 5.757802 -2.773690 -7.078037 10.455637 11.033481 -38.059177 -70.027785 -15.484061 41.928250 65.337310 -49.880595 0.000000 0.000000 0.000000 
-136.124313 57.758141 0.277832 0.000000 0.000000 0.000000 -2.527443 -11.179640 -77.535993 -115.053621 -19.808954 35.621434 122.140626 -28.716202 7.435443 -74.198715 57.138829 9.142128 0.000000 0.000000 0.000000 -2.899954 -10.673032 -78.427688 -66.746623 -18.968672 6.826120 63.001480 10.367035 12.273630 51.529157 33.614646 -20.563905 0.000000 0.000000 0.000000 0.166384 -8.825917 -75.198805 -0.678033 -0.019759 0.028376 30.668816 -7.379810 -10.039130 8.229319 5.945943 -2.596459 0.000000 0.000000 0.000000 5.320398 2.513776 -0.939575 2.740012 0.701539 0.429884 0.000000 0.000000 0.000000 3.052384 2.277531 1.599169 1.302061 -19.631130 -17.085491 -51.837646 -12.505099 -5.625412 -5.266680 -53.001773 -0.142451 0.000000 0.000000 0.000000 11.649355 4.761023 -2.954394 -7.563328 10.115292 10.819482 -26.487357 -74.604517 -3.947398 41.867215 65.591488 -49.721841 0.000000 0.000000 0.000000 
-133.000992 59.654671 1.225128 0.000000 0.000000 0.000000 -3.620042 -17.740390 -80.450872 -101.504616 -9.295201 44.755255 127.783701 -30.303541 11.915781 -81.485195 57.895443 19.788784 0.000000 0.000000 0.000000 -4.465649 -15.711279 -81.265611 -70.274983 -15.802276 4.445234 54.893380 10.347025 15.020189 63.261362 33.796794 -20.381650 0.000000 0.000000 0.000000 -0.450221 -12.891490 -77.960811 -0.734245 -0.008067 0.012430 32.365012 -7.957565 -10.318812 7.452438 5.041703 -3.119784 0.000000 0.000000 0.000000 4.648724 1.436255 -1.237030 2.354026 0.814845 0.203099 0.000000 0.000000 0.000000 2.315700 1.087416 0.846795 1.076324 -21.315419 -16.936448 -53.733078 -17.459956 -2.858910 -6.230000 -47.781381 -2.171083 0.000000 0.000000 0.000000 10.858359 3.584347 -3.109055 -7.751468 11.907857 9.765688 -3.447018 -75.420247 19.613768 39.513491 63.199535 -47.969921 0.000000 0.000000 0.000000 
-130.159943 59.792755 2.756256 0.000000 0.000000 0.000000 -4.958894 -23.518139 -83.535263 -87.343011 4.979642 49.595223 132.627616 -31.388339 16.997476 -93.265598 54.977846 36.362821 0.000000 0.000000 0.000000 -6.704267 -19.966689 -84.701777 -76.298691 -12.486743 1.349265 55.129783 9.569919 17.829516 63.773490 34.833159 -19.168041 0.000000 0.000000 0.000000 -1.652724 -16.894408 -80.993920 -0.782209 0.011750 -0.018817 33.988797 -8.226522 -10.211208 6.735831 4.023653 -3.554306 0.000000 0.000000 0.000000 4.263080 0.308767 -1.506666 2.048425 1.116832 -0.034024 0.000000 0.000000 0.000000 1.611561 -0.197699 0.039091 0.691569 -23.933586 -17.059745 -54.568516 -21.795561 -0.601452 -5.886105 -42.607891 -3.308909 0.000000 0.000000 0.000000 9.824071 2.363997 -3.206414 -7.708849 15.906158 8.555160 13.529984 -71.689105 36.768394 36.737955 58.791004 -46.339234 0.000000 0.000000 0.000000 
-127.640610 58.498703 4.875786 0.000000 0.000000 0.000000 -6.837089 -28.651670 -86.216371 -73.347277 19.546893 48.977156 138.074788 -32.328785 23.122591 -104.860739 47.729942 47.982448 0.000000 0.000000 0.000000 -9.417777 -23.622167 -87.683715 -82.761197 -7.046293 -0.081170 60.703504 8.062897 20.401975 52.405180 36.855974 -15.086505 0.000000 0.000000 0.000000 -3.660800 -21.031332 -83.373292 -0.838132 0.048989 -0.081245 35.565925 -8.217831 -9.852586 6.207961 3.026972 -3.858012 0.000000 0.000000 0.000000 4.160950 -0.766923 -1.642234 1.843078 1.614107 -0.234905 0.000000 0.000000 0.000000 0.909155 -1.415891 -0.628077 0.300937 -26.867437 -17.265060 -54.370795 -24.561468 1.011963 -4.374171 -38.361737 -3.674168 0.000000 0.000000 0.000000 8.698023 1.183073 -3.227197 -7.537600 21.639458 7.607536 17.631481 -66.110275 40.366510 34.945157 53.678655 -46.098374 0.000000 0.000000 0.000000 
